<svg width="390" height="844" viewBox="0 0 390 844" fill="none" xmlns="http://www.w3.org/2000/svg">
<rect width="390" height="844" fill="white"/>
<path d="M118.32 729H116.824V716.08H118.32V729ZM124.726 719.718C125.508 719.718 126.176 719.888 126.732 720.228C127.298 720.568 127.729 721.05 128.024 721.673C128.33 722.285 128.483 723.005 128.483 723.832V724.733H122.244C122.266 725.764 122.527 726.552 123.026 727.096C123.536 727.629 124.244 727.895 125.151 727.895C125.729 727.895 126.239 727.844 126.681 727.742C127.134 727.629 127.599 727.47 128.075 727.266V728.575C127.61 728.779 127.151 728.926 126.698 729.017C126.244 729.119 125.706 729.17 125.083 729.17C124.221 729.17 123.456 728.994 122.788 728.643C122.13 728.292 121.615 727.77 121.241 727.079C120.878 726.376 120.697 725.521 120.697 724.512C120.697 723.515 120.861 722.659 121.19 721.945C121.53 721.231 122 720.681 122.601 720.296C123.213 719.911 123.921 719.718 124.726 719.718ZM124.709 720.942C123.995 720.942 123.428 721.174 123.009 721.639C122.601 722.092 122.357 722.727 122.278 723.543H126.919C126.919 723.022 126.839 722.568 126.681 722.183C126.522 721.798 126.278 721.497 125.95 721.282C125.632 721.055 125.219 720.942 124.709 720.942ZM134.253 719.735C135.364 719.735 136.186 719.979 136.718 720.466C137.251 720.953 137.517 721.73 137.517 722.795V729H136.429L136.14 727.708H136.072C135.812 728.037 135.54 728.314 135.256 728.541C134.984 728.756 134.667 728.915 134.304 729.017C133.953 729.119 133.522 729.17 133.012 729.17C132.468 729.17 131.975 729.074 131.533 728.881C131.103 728.688 130.763 728.394 130.513 727.997C130.264 727.589 130.139 727.079 130.139 726.467C130.139 725.56 130.496 724.863 131.21 724.376C131.924 723.877 133.024 723.605 134.508 723.56L136.055 723.509V722.965C136.055 722.206 135.891 721.679 135.562 721.384C135.234 721.089 134.769 720.942 134.168 720.942C133.692 720.942 133.239 721.016 132.808 721.163C132.378 721.299 131.975 721.458 131.601 721.639L131.142 720.517C131.539 720.302 132.009 720.12 132.553 719.973C133.097 719.814 133.664 719.735 134.253 719.735ZM134.695 724.597C133.562 724.642 132.774 724.824 132.332 725.141C131.902 725.458 131.686 725.906 131.686 726.484C131.686 726.994 131.839 727.368 132.145 727.606C132.463 727.844 132.865 727.963 133.352 727.963C134.123 727.963 134.763 727.753 135.273 727.334C135.783 726.903 136.038 726.246 136.038 725.362V724.546L134.695 724.597ZM144.582 719.718C144.752 719.718 144.933 719.729 145.126 719.752C145.33 719.763 145.505 719.786 145.653 719.82L145.466 721.197C145.318 721.163 145.154 721.135 144.973 721.112C144.803 721.089 144.638 721.078 144.48 721.078C144.128 721.078 143.794 721.152 143.477 721.299C143.159 721.446 142.876 721.656 142.627 721.928C142.377 722.189 142.179 722.506 142.032 722.88C141.896 723.254 141.828 723.673 141.828 724.138V729H140.332V719.888H141.556L141.726 721.554H141.794C141.986 721.214 142.219 720.908 142.491 720.636C142.763 720.353 143.074 720.132 143.426 719.973C143.777 719.803 144.162 719.718 144.582 719.718ZM151.74 719.718C152.828 719.718 153.65 719.984 154.205 720.517C154.761 721.038 155.038 721.888 155.038 723.067V729H153.559V723.169C153.559 722.432 153.395 721.883 153.066 721.52C152.738 721.157 152.222 720.976 151.519 720.976C150.511 720.976 149.814 721.259 149.428 721.826C149.043 722.393 148.85 723.209 148.85 724.274V729H147.354V719.888H148.561L148.782 721.129H148.867C149.071 720.812 149.321 720.551 149.615 720.347C149.921 720.132 150.256 719.973 150.618 719.871C150.981 719.769 151.355 719.718 151.74 719.718ZM163.775 729H162.279V716.08H163.775V729ZM170.113 719.735C171.223 719.735 172.045 719.979 172.578 720.466C173.11 720.953 173.377 721.73 173.377 722.795V729H172.289L172 727.708H171.932C171.671 728.037 171.399 728.314 171.116 728.541C170.844 728.756 170.526 728.915 170.164 729.017C169.812 729.119 169.382 729.17 168.872 729.17C168.328 729.17 167.835 729.074 167.393 728.881C166.962 728.688 166.622 728.394 166.373 727.997C166.123 727.589 165.999 727.079 165.999 726.467C165.999 725.56 166.356 724.863 167.07 724.376C167.784 723.877 168.883 723.605 170.368 723.56L171.915 723.509V722.965C171.915 722.206 171.75 721.679 171.422 721.384C171.093 721.089 170.628 720.942 170.028 720.942C169.552 720.942 169.098 721.016 168.668 721.163C168.237 721.299 167.835 721.458 167.461 721.639L167.002 720.517C167.398 720.302 167.869 720.12 168.413 719.973C168.957 719.814 169.523 719.735 170.113 719.735ZM170.555 724.597C169.421 724.642 168.634 724.824 168.192 725.141C167.761 725.458 167.546 725.906 167.546 726.484C167.546 726.994 167.699 727.368 168.005 727.606C168.322 727.844 168.724 727.963 169.212 727.963C169.982 727.963 170.623 727.753 171.133 727.334C171.643 726.903 171.898 726.246 171.898 725.362V724.546L170.555 724.597ZM180.577 719.718C181.665 719.718 182.487 719.984 183.042 720.517C183.597 721.038 183.875 721.888 183.875 723.067V729H182.396V723.169C182.396 722.432 182.232 721.883 181.903 721.52C181.574 721.157 181.059 720.976 180.356 720.976C179.347 720.976 178.65 721.259 178.265 721.826C177.88 722.393 177.687 723.209 177.687 724.274V729H176.191V719.888H177.398L177.619 721.129H177.704C177.908 720.812 178.157 720.551 178.452 720.347C178.758 720.132 179.092 719.973 179.455 719.871C179.818 719.769 180.192 719.718 180.577 719.718ZM189.93 719.718C190.531 719.718 191.069 719.831 191.545 720.058C192.032 720.285 192.446 720.63 192.786 721.095H192.871L193.075 719.888H194.265V729.153C194.265 730.014 194.118 730.734 193.823 731.312C193.528 731.901 193.081 732.343 192.48 732.638C191.879 732.933 191.114 733.08 190.185 733.08C189.528 733.08 188.921 733.029 188.366 732.927C187.822 732.836 187.335 732.695 186.904 732.502V731.125C187.199 731.272 187.522 731.397 187.873 731.499C188.224 731.612 188.604 731.697 189.012 731.754C189.42 731.811 189.839 731.839 190.27 731.839C191.052 731.839 191.664 731.607 192.106 731.142C192.559 730.689 192.786 730.065 192.786 729.272V728.915C192.786 728.779 192.792 728.586 192.803 728.337C192.814 728.076 192.826 727.895 192.837 727.793H192.769C192.452 728.258 192.055 728.603 191.579 728.83C191.114 729.057 190.57 729.17 189.947 729.17C188.768 729.17 187.845 728.756 187.176 727.929C186.519 727.102 186.19 725.946 186.19 724.461C186.19 723.486 186.337 722.648 186.632 721.945C186.938 721.231 187.369 720.681 187.924 720.296C188.479 719.911 189.148 719.718 189.93 719.718ZM190.134 720.976C189.624 720.976 189.188 721.112 188.825 721.384C188.474 721.656 188.202 722.053 188.009 722.574C187.828 723.095 187.737 723.73 187.737 724.478C187.737 725.6 187.941 726.461 188.349 727.062C188.768 727.651 189.375 727.946 190.168 727.946C190.633 727.946 191.029 727.889 191.358 727.776C191.687 727.651 191.959 727.464 192.174 727.215C192.389 726.954 192.548 726.626 192.65 726.229C192.752 725.832 192.803 725.362 192.803 724.818V724.461C192.803 723.634 192.707 722.965 192.514 722.455C192.333 721.945 192.044 721.571 191.647 721.333C191.25 721.095 190.746 720.976 190.134 720.976ZM204.775 719.888V729H203.551L203.33 727.793H203.262C203.069 728.11 202.82 728.371 202.514 728.575C202.208 728.779 201.874 728.926 201.511 729.017C201.148 729.119 200.769 729.17 200.372 729.17C199.647 729.17 199.035 729.057 198.536 728.83C198.049 728.592 197.68 728.229 197.431 727.742C197.182 727.255 197.057 726.626 197.057 725.855V719.888H198.57V725.753C198.57 726.478 198.734 727.022 199.063 727.385C199.392 727.748 199.902 727.929 200.593 727.929C201.273 727.929 201.806 727.804 202.191 727.555C202.588 727.294 202.865 726.92 203.024 726.433C203.194 725.934 203.279 725.334 203.279 724.631V719.888H204.775ZM211.119 719.735C212.229 719.735 213.051 719.979 213.584 720.466C214.116 720.953 214.383 721.73 214.383 722.795V729H213.295L213.006 727.708H212.938C212.677 728.037 212.405 728.314 212.122 728.541C211.85 728.756 211.532 728.915 211.17 729.017C210.818 729.119 210.388 729.17 209.878 729.17C209.334 729.17 208.841 729.074 208.399 728.881C207.968 728.688 207.628 728.394 207.379 727.997C207.129 727.589 207.005 727.079 207.005 726.467C207.005 725.56 207.362 724.863 208.076 724.376C208.79 723.877 209.889 723.605 211.374 723.56L212.921 723.509V722.965C212.921 722.206 212.756 721.679 212.428 721.384C212.099 721.089 211.634 720.942 211.034 720.942C210.558 720.942 210.104 721.016 209.674 721.163C209.243 721.299 208.841 721.458 208.467 721.639L208.008 720.517C208.404 720.302 208.875 720.12 209.419 719.973C209.963 719.814 210.529 719.735 211.119 719.735ZM211.561 724.597C210.427 724.642 209.64 724.824 209.198 725.141C208.767 725.458 208.552 725.906 208.552 726.484C208.552 726.994 208.705 727.368 209.011 727.606C209.328 727.844 209.73 727.963 210.218 727.963C210.988 727.963 211.629 727.753 212.139 727.334C212.649 726.903 212.904 726.246 212.904 725.362V724.546L211.561 724.597ZM220.427 719.718C221.028 719.718 221.566 719.831 222.042 720.058C222.529 720.285 222.943 720.63 223.283 721.095H223.368L223.572 719.888H224.762V729.153C224.762 730.014 224.615 730.734 224.32 731.312C224.025 731.901 223.578 732.343 222.977 732.638C222.376 732.933 221.611 733.08 220.682 733.08C220.025 733.08 219.418 733.029 218.863 732.927C218.319 732.836 217.832 732.695 217.401 732.502V731.125C217.696 731.272 218.019 731.397 218.37 731.499C218.721 731.612 219.101 731.697 219.509 731.754C219.917 731.811 220.336 731.839 220.767 731.839C221.549 731.839 222.161 731.607 222.603 731.142C223.056 730.689 223.283 730.065 223.283 729.272V728.915C223.283 728.779 223.289 728.586 223.3 728.337C223.311 728.076 223.323 727.895 223.334 727.793H223.266C222.949 728.258 222.552 728.603 222.076 728.83C221.611 729.057 221.067 729.17 220.444 729.17C219.265 729.17 218.342 728.756 217.673 727.929C217.016 727.102 216.687 725.946 216.687 724.461C216.687 723.486 216.834 722.648 217.129 721.945C217.435 721.231 217.866 720.681 218.421 720.296C218.976 719.911 219.645 719.718 220.427 719.718ZM220.631 720.976C220.121 720.976 219.685 721.112 219.322 721.384C218.971 721.656 218.699 722.053 218.506 722.574C218.325 723.095 218.234 723.73 218.234 724.478C218.234 725.6 218.438 726.461 218.846 727.062C219.265 727.651 219.872 727.946 220.665 727.946C221.13 727.946 221.526 727.889 221.855 727.776C222.184 727.651 222.456 727.464 222.671 727.215C222.886 726.954 223.045 726.626 223.147 726.229C223.249 725.832 223.3 725.362 223.3 724.818V724.461C223.3 723.634 223.204 722.965 223.011 722.455C222.83 721.945 222.541 721.571 222.144 721.333C221.747 721.095 221.243 720.976 220.631 720.976ZM231.175 719.718C231.957 719.718 232.626 719.888 233.181 720.228C233.748 720.568 234.178 721.05 234.473 721.673C234.779 722.285 234.932 723.005 234.932 723.832V724.733H228.693C228.716 725.764 228.976 726.552 229.475 727.096C229.985 727.629 230.693 727.895 231.6 727.895C232.178 727.895 232.688 727.844 233.13 727.742C233.583 727.629 234.048 727.47 234.524 727.266V728.575C234.059 728.779 233.6 728.926 233.147 729.017C232.694 729.119 232.155 729.17 231.532 729.17C230.671 729.17 229.906 728.994 229.237 728.643C228.58 728.292 228.064 727.77 227.69 727.079C227.327 726.376 227.146 725.521 227.146 724.512C227.146 723.515 227.31 722.659 227.639 721.945C227.979 721.231 228.449 720.681 229.05 720.296C229.662 719.911 230.37 719.718 231.175 719.718ZM231.158 720.942C230.444 720.942 229.877 721.174 229.458 721.639C229.05 722.092 228.806 722.727 228.727 723.543H233.368C233.368 723.022 233.289 722.568 233.13 722.183C232.971 721.798 232.728 721.497 232.399 721.282C232.082 721.055 231.668 720.942 231.158 720.942ZM247.55 723.849C247.482 723.611 247.414 723.379 247.346 723.152C247.278 722.914 247.215 722.693 247.159 722.489C247.113 722.274 247.068 722.075 247.023 721.894C246.977 721.713 246.943 721.56 246.921 721.435H246.853C246.83 721.56 246.796 721.713 246.751 721.894C246.717 722.075 246.671 722.274 246.615 722.489C246.569 722.704 246.513 722.931 246.445 723.169C246.388 723.396 246.32 723.628 246.241 723.866L244.609 728.983H242.909L240.41 719.871H241.957L243.215 724.733C243.305 725.062 243.39 725.396 243.47 725.736C243.549 726.065 243.617 726.382 243.674 726.688C243.742 726.983 243.787 727.238 243.81 727.453H243.878C243.912 727.317 243.951 727.147 243.997 726.943C244.042 726.739 244.087 726.524 244.133 726.297C244.189 726.07 244.246 725.844 244.303 725.617C244.371 725.39 244.433 725.186 244.49 725.005L246.105 719.871H247.737L249.301 725.005C249.38 725.266 249.459 725.543 249.539 725.838C249.629 726.133 249.709 726.422 249.777 726.705C249.845 726.977 249.89 727.221 249.913 727.436H249.981C250.003 727.243 250.043 727.005 250.1 726.722C250.168 726.427 250.241 726.11 250.321 725.77C250.411 725.419 250.502 725.073 250.593 724.733L251.868 719.871H253.398L250.865 728.983H249.114L247.55 723.849ZM256.528 719.888V729H255.032V719.888H256.528ZM255.797 716.471C256.024 716.471 256.222 716.55 256.392 716.709C256.573 716.856 256.664 717.094 256.664 717.423C256.664 717.74 256.573 717.978 256.392 718.137C256.222 718.296 256.024 718.375 255.797 718.375C255.548 718.375 255.338 718.296 255.168 718.137C254.998 717.978 254.913 717.74 254.913 717.423C254.913 717.094 254.998 716.856 255.168 716.709C255.338 716.55 255.548 716.471 255.797 716.471ZM262.458 727.946C262.684 727.946 262.917 727.929 263.155 727.895C263.393 727.85 263.585 727.804 263.733 727.759V728.898C263.574 728.977 263.347 729.04 263.053 729.085C262.758 729.142 262.475 729.17 262.203 729.17C261.727 729.17 261.285 729.091 260.877 728.932C260.48 728.762 260.157 728.473 259.908 728.065C259.658 727.657 259.534 727.085 259.534 726.348V721.044H258.242V720.33L259.551 719.735L260.146 717.797H261.03V719.888H263.665V721.044H261.03V726.314C261.03 726.869 261.16 727.283 261.421 727.555C261.693 727.816 262.038 727.946 262.458 727.946ZM267.053 719.871C267.053 720.086 267.042 720.307 267.019 720.534C267.008 720.761 266.991 720.965 266.968 721.146H267.07C267.263 720.829 267.507 720.568 267.801 720.364C268.096 720.16 268.425 720.007 268.787 719.905C269.15 719.792 269.524 719.735 269.909 719.735C270.646 719.735 271.258 719.854 271.745 720.092C272.244 720.319 272.618 720.676 272.867 721.163C273.117 721.65 273.241 722.285 273.241 723.067V729H271.762V723.169C271.762 722.432 271.598 721.883 271.269 721.52C270.941 721.157 270.425 720.976 269.722 720.976C269.042 720.976 268.51 721.106 268.124 721.367C267.739 721.616 267.461 721.99 267.291 722.489C267.133 722.976 267.053 723.577 267.053 724.291V729H265.557V716.08H267.053V719.871Z" fill="black"/>
<g clip-path="url(#clip0_604_19522)">
<path d="M166.666 754.504C166.112 752.457 164.49 750.842 162.432 750.291C158.673 749.268 143.635 749.268 143.635 749.268C143.635 749.268 128.598 749.268 124.839 750.252C122.821 750.803 121.159 752.457 120.605 754.504C119.615 758.244 119.615 766 119.615 766C119.615 766 119.615 773.795 120.605 777.496C121.159 779.543 122.781 781.157 124.839 781.709C128.638 782.732 143.635 782.732 143.635 782.732C143.635 782.732 158.673 782.732 162.432 781.748C164.49 781.197 166.112 779.583 166.666 777.535C167.656 773.795 167.656 766.039 167.656 766.039C167.656 766.039 167.695 758.244 166.666 754.504Z" fill="#FF0000"/>
<path d="M138.848 758.834V773.165L151.352 766L138.848 758.834Z" fill="white"/>
<path d="M189.379 779.74C188.43 779.11 187.757 778.126 187.361 776.748C186.965 775.41 186.768 773.598 186.768 771.394V768.362C186.768 766.118 187.005 764.307 187.44 762.929C187.915 761.551 188.627 760.567 189.577 759.937C190.566 759.307 191.833 758.992 193.416 758.992C194.959 758.992 196.225 759.307 197.175 759.937C198.125 760.567 198.797 761.591 199.233 762.929C199.668 764.268 199.905 766.079 199.905 768.362V771.394C199.905 773.638 199.708 775.41 199.272 776.787C198.837 778.126 198.164 779.15 197.215 779.78C196.265 780.41 194.959 780.724 193.337 780.724C191.675 780.685 190.329 780.37 189.379 779.74ZM194.722 776.433C194.999 775.764 195.117 774.622 195.117 773.087V766.551C195.117 765.055 194.999 763.953 194.722 763.244C194.445 762.535 194.009 762.221 193.337 762.221C192.703 762.221 192.229 762.575 191.991 763.244C191.714 763.953 191.595 765.055 191.595 766.551V773.087C191.595 774.622 191.714 775.764 191.991 776.433C192.229 777.102 192.703 777.457 193.376 777.457C194.009 777.457 194.445 777.142 194.722 776.433Z" fill="#282828"/>
<path d="M262.43 771.433V772.496C262.43 773.835 262.47 774.858 262.549 775.528C262.628 776.197 262.786 776.709 263.063 776.984C263.301 777.299 263.697 777.457 264.251 777.457C264.963 777.457 265.438 777.181 265.715 776.63C265.992 776.079 266.11 775.173 266.15 773.874L270.226 774.11C270.265 774.307 270.265 774.543 270.265 774.858C270.265 776.788 269.751 778.244 268.683 779.189C267.614 780.134 266.11 780.606 264.171 780.606C261.837 780.606 260.214 779.858 259.264 778.402C258.315 776.945 257.84 774.701 257.84 771.63V767.969C257.84 764.819 258.315 762.536 259.304 761.079C260.293 759.622 261.955 758.914 264.29 758.914C265.913 758.914 267.179 759.229 268.049 759.819C268.92 760.41 269.514 761.355 269.87 762.575C270.226 763.835 270.384 765.567 270.384 767.772V771.355H262.43V771.433ZM263.024 762.614C262.786 762.929 262.628 763.402 262.549 764.071C262.47 764.74 262.43 765.764 262.43 767.142V768.638H265.913V767.142C265.913 765.803 265.873 764.78 265.794 764.071C265.715 763.362 265.517 762.89 265.279 762.614C265.042 762.339 264.646 762.181 264.171 762.181C263.617 762.142 263.261 762.299 263.024 762.614Z" fill="#282828"/>
<path d="M177.825 771.039L172.443 751.63H177.152L179.052 760.409C179.527 762.575 179.883 764.425 180.12 765.961H180.239C180.397 764.858 180.753 763.047 181.307 760.449L183.286 751.63H187.995L182.534 771.039V780.331H177.865V771.039H177.825Z" fill="#282828"/>
<path d="M215.22 759.386V780.37H211.5L211.105 777.811H210.986C209.997 779.74 208.453 780.724 206.435 780.724C205.05 780.724 204.021 780.252 203.349 779.346C202.676 778.441 202.359 777.024 202.359 775.055V759.386H207.108V774.779C207.108 775.724 207.227 776.394 207.425 776.787C207.622 777.181 207.979 777.378 208.453 777.378C208.849 777.378 209.245 777.26 209.641 776.984C210.036 776.748 210.313 776.433 210.472 776.039V759.386H215.22Z" fill="#282828"/>
<path d="M239.558 759.386V780.37H235.838L235.443 777.811H235.324C234.335 779.74 232.791 780.724 230.773 780.724C229.388 780.724 228.359 780.252 227.687 779.346C227.014 778.441 226.697 777.024 226.697 775.055V759.386H231.446V774.779C231.446 775.724 231.565 776.394 231.762 776.787C231.96 777.181 232.316 777.378 232.791 777.378C233.187 777.378 233.583 777.26 233.979 776.984C234.374 776.748 234.651 776.433 234.81 776.039V759.386H239.558Z" fill="#282828"/>
<path d="M228.12 755.449H223.411V780.331H218.781V755.449H214.072V751.63H228.12V755.449Z" fill="#282828"/>
<path d="M255.267 762.732C254.99 761.394 254.515 760.449 253.882 759.858C253.249 759.268 252.339 758.953 251.231 758.953C250.36 758.953 249.529 759.189 248.777 759.701C248.025 760.173 247.432 760.842 247.036 761.63H246.997V750.567H242.406V780.331H246.324L246.799 778.362H246.917C247.274 779.071 247.828 779.622 248.579 780.055C249.331 780.449 250.123 780.685 251.033 780.685C252.655 780.685 253.803 779.937 254.555 778.48C255.307 777.024 255.702 774.701 255.702 771.591V768.283C255.663 765.882 255.544 764.031 255.267 762.732ZM250.914 771.276C250.914 772.811 250.835 773.992 250.716 774.858C250.598 775.724 250.36 776.354 250.083 776.709C249.767 777.063 249.371 777.26 248.896 777.26C248.5 777.26 248.144 777.181 247.828 776.984C247.511 776.787 247.234 776.512 247.036 776.157V764.268C247.194 763.717 247.471 763.244 247.867 762.85C248.263 762.496 248.698 762.299 249.133 762.299C249.608 762.299 250.004 762.496 250.242 762.85C250.519 763.244 250.677 763.874 250.796 764.74C250.914 765.646 250.954 766.905 250.954 768.52V771.276H250.914Z" fill="#282828"/>
</g>
<path fill-rule="evenodd" clip-rule="evenodd" d="M100.088 325.849C123.635 278.225 166.069 266 194.978 266C254.066 266 283.61 310.921 291.465 331.362C301.605 357.753 299.485 376.945 296.689 390.863C292.389 410.871 284.866 425.476 273.091 438.603C261.316 451.73 244.874 465.218 216.964 472.001C195.992 477.098 174.606 473.413 158.275 467.497C144.716 462.586 129.976 452.6 126.418 448.268C122.861 443.936 122.774 438.201 127.72 435.104L174.988 410.118L175.027 410.041C175.446 409.899 175.86 409.714 176.266 409.484L229.121 379.515C233.847 376.835 233.9 370.043 229.216 367.29L176.835 336.501C172.151 333.748 166.243 337.098 166.2 342.531L166.024 365.16C166.028 365.199 166.031 365.238 166.035 365.277L166.035 397.508C166.035 398.415 166.023 399.26 166.012 400.045C165.956 403.941 165.922 406.349 167.498 407.58C167.498 407.58 162.5 410.565 157.945 412.97C157.385 413.266 156.769 413.606 156.111 413.97C151.424 416.561 144.651 420.304 141.309 417.122C124.213 400.853 114.259 376.33 112.118 356.932C111.53 351.598 103.273 347.555 97.9679 355.015C95.8069 358.054 91.2964 363.686 91.1672 362.94C89.7746 354.9 97.4622 329.998 100.088 325.849Z" fill="url(#paint0_linear_604_19522)"/>
<path d="M159.347 527.384V524.528H167.269C168.583 524.528 169.637 524.131 170.431 523.338C171.247 522.545 171.655 521.502 171.655 520.21C171.655 518.873 171.247 517.819 170.431 517.048C169.637 516.277 168.583 515.892 167.269 515.892H159.891V535H156.627V512.934H167.133C168.221 512.934 169.229 513.093 170.159 513.41C171.111 513.705 171.938 514.158 172.641 514.77C173.366 515.382 173.921 516.141 174.307 517.048C174.715 517.955 174.919 519.009 174.919 520.21C174.919 521.389 174.715 522.431 174.307 523.338C173.921 524.245 173.366 525.004 172.641 525.616C171.938 526.205 171.111 526.647 170.159 526.942C169.229 527.237 168.221 527.384 167.133 527.384H159.347ZM186.192 535.374C184.538 535.374 183.019 535.023 181.636 534.32C180.254 533.617 179.154 532.609 178.338 531.294C177.522 529.979 177.114 528.404 177.114 526.568C177.114 524.709 177.522 523.123 178.338 521.808C179.154 520.471 180.254 519.451 181.636 518.748C183.019 518.045 184.538 517.694 186.192 517.694C187.847 517.694 189.354 518.045 190.714 518.748C192.074 519.451 193.162 520.471 193.978 521.808C194.794 523.123 195.202 524.709 195.202 526.568C195.202 528.404 194.794 529.979 193.978 531.294C193.162 532.609 192.074 533.617 190.714 534.32C189.354 535.023 187.847 535.374 186.192 535.374ZM186.192 532.552C187.212 532.552 188.153 532.325 189.014 531.872C189.898 531.396 190.601 530.716 191.122 529.832C191.666 528.925 191.938 527.837 191.938 526.568C191.938 525.276 191.666 524.177 191.122 523.27C190.601 522.363 189.898 521.672 189.014 521.196C188.153 520.72 187.212 520.482 186.192 520.482C185.172 520.482 184.22 520.72 183.336 521.196C182.452 521.649 181.738 522.329 181.194 523.236C180.65 524.143 180.378 525.253 180.378 526.568C180.378 527.837 180.639 528.925 181.16 529.832C181.704 530.716 182.418 531.396 183.302 531.872C184.186 532.325 185.15 532.552 186.192 532.552ZM198.618 518.034H201.882V535H198.618V518.034ZM208.342 517.694C209.294 517.694 210.155 517.83 210.926 518.102C211.696 518.374 212.354 518.782 212.898 519.326C213.442 519.847 213.861 520.505 214.156 521.298C214.473 522.069 214.632 522.953 214.632 523.95V535H211.402V524.664C211.402 523.327 211.073 522.329 210.416 521.672C209.781 520.992 208.806 520.652 207.492 520.652C206.472 520.652 205.542 520.89 204.704 521.366C203.865 521.842 203.174 522.477 202.63 523.27C202.108 524.041 201.791 524.913 201.678 525.888L201.644 524.018C201.757 523.111 201.995 522.273 202.358 521.502C202.743 520.731 203.219 520.063 203.786 519.496C204.375 518.907 205.055 518.465 205.826 518.17C206.596 517.853 207.435 517.694 208.342 517.694ZM217.043 518.034H220.511L227.005 534.32L224.183 535L217.043 518.034ZM234.349 518.034L224.183 541.8H220.749L225.135 532.586L230.915 518.034H234.349Z" fill="black"/>
<defs>
<linearGradient id="paint0_linear_604_19522" x1="195" y1="266" x2="195" y2="474.413" gradientUnits="userSpaceOnUse">
<stop/>
<stop offset="0.588543" stop-color="#242424"/>
<stop offset="1"/>
</linearGradient>
<clipPath id="clip0_604_19522">
<rect width="152" height="34" fill="white" transform="translate(119 749)"/>
</clipPath>
</defs>
</svg>
