<svg width="187" height="72" viewBox="0 0 187 72" fill="none" xmlns="http://www.w3.org/2000/svg">
<path d="M16.8199 18H15.3239V5.08H16.8199V18ZM23.2257 8.718C24.0077 8.718 24.6764 8.888 25.2317 9.228C25.7984 9.568 26.2291 10.0497 26.5237 10.673C26.8297 11.285 26.9827 12.0047 26.9827 12.832V13.733H20.7437C20.7664 14.7643 21.0271 15.552 21.5257 16.096C22.0357 16.6287 22.7441 16.895 23.6507 16.895C24.2287 16.895 24.7387 16.844 25.1807 16.742C25.6341 16.6287 26.0987 16.47 26.5747 16.266V17.575C26.1101 17.779 25.6511 17.9263 25.1977 18.017C24.7444 18.119 24.2061 18.17 23.5827 18.17C22.7214 18.17 21.9564 17.9943 21.2877 17.643C20.6304 17.2917 20.1147 16.7703 19.7407 16.079C19.3781 15.3763 19.1967 14.5207 19.1967 13.512C19.1967 12.5147 19.3611 11.659 19.6897 10.945C20.0297 10.231 20.5001 9.68133 21.1007 9.296C21.7127 8.91067 22.4211 8.718 23.2257 8.718ZM23.2087 9.942C22.4947 9.942 21.9281 10.1743 21.5087 10.639C21.1007 11.0923 20.8571 11.727 20.7777 12.543H25.4187C25.4187 12.0217 25.3394 11.5683 25.1807 11.183C25.0221 10.7977 24.7784 10.4973 24.4497 10.282C24.1324 10.0553 23.7187 9.942 23.2087 9.942ZM32.7534 8.735C33.8641 8.735 34.6858 8.97867 35.2184 9.466C35.7511 9.95333 36.0174 10.7297 36.0174 11.795V18H34.9294L34.6404 16.708H34.5724C34.3118 17.0367 34.0398 17.3143 33.7564 17.541C33.4844 17.7563 33.1671 17.915 32.8044 18.017C32.4531 18.119 32.0224 18.17 31.5124 18.17C30.9684 18.17 30.4754 18.0737 30.0334 17.881C29.6028 17.6883 29.2628 17.3937 29.0134 16.997C28.7641 16.589 28.6394 16.079 28.6394 15.467C28.6394 14.5603 28.9964 13.8633 29.7104 13.376C30.4244 12.8773 31.5238 12.6053 33.0084 12.56L34.5554 12.509V11.965C34.5554 11.2057 34.3911 10.6787 34.0624 10.384C33.7338 10.0893 33.2691 9.942 32.6684 9.942C32.1924 9.942 31.7391 10.0157 31.3084 10.163C30.8778 10.299 30.4754 10.4577 30.1014 10.639L29.6424 9.517C30.0391 9.30167 30.5094 9.12033 31.0534 8.973C31.5974 8.81433 32.1641 8.735 32.7534 8.735ZM33.1954 13.597C32.0621 13.6423 31.2744 13.8237 30.8324 14.141C30.4018 14.4583 30.1864 14.906 30.1864 15.484C30.1864 15.994 30.3394 16.368 30.6454 16.606C30.9628 16.844 31.3651 16.963 31.8524 16.963C32.6231 16.963 33.2634 16.7533 33.7734 16.334C34.2834 15.9033 34.5384 15.246 34.5384 14.362V13.546L33.1954 13.597ZM43.0817 8.718C43.2517 8.718 43.4331 8.72933 43.6257 8.752C43.8297 8.76333 44.0054 8.786 44.1527 8.82L43.9657 10.197C43.8184 10.163 43.6541 10.1347 43.4727 10.112C43.3027 10.0893 43.1384 10.078 42.9797 10.078C42.6284 10.078 42.2941 10.1517 41.9767 10.299C41.6594 10.4463 41.3761 10.656 41.1267 10.928C40.8774 11.1887 40.6791 11.506 40.5317 11.88C40.3957 12.254 40.3277 12.6733 40.3277 13.138V18H38.8317V8.888H40.0557L40.2257 10.554H40.2937C40.4864 10.214 40.7187 9.908 40.9907 9.636C41.2627 9.35267 41.5744 9.13167 41.9257 8.973C42.2771 8.803 42.6624 8.718 43.0817 8.718ZM50.2402 8.718C51.3282 8.718 52.1498 8.98433 52.7052 9.517C53.2605 10.0383 53.5382 10.8883 53.5382 12.067V18H52.0592V12.169C52.0592 11.4323 51.8948 10.8827 51.5662 10.52C51.2375 10.1573 50.7218 9.976 50.0192 9.976C49.0105 9.976 48.3135 10.2593 47.9282 10.826C47.5428 11.3927 47.3502 12.2087 47.3502 13.274V18H45.8542V8.888H47.0612L47.2822 10.129H47.3672C47.5712 9.81167 47.8205 9.551 48.1152 9.347C48.4212 9.13167 48.7555 8.973 49.1182 8.871C49.4808 8.769 49.8548 8.718 50.2402 8.718ZM62.275 18H60.779V5.08H62.275V18ZM68.6128 8.735C69.7235 8.735 70.5451 8.97867 71.0778 9.466C71.6105 9.95333 71.8768 10.7297 71.8768 11.795V18H70.7888L70.4998 16.708H70.4318C70.1711 17.0367 69.8991 17.3143 69.6158 17.541C69.3438 17.7563 69.0265 17.915 68.6638 18.017C68.3125 18.119 67.8818 18.17 67.3718 18.17C66.8278 18.17 66.3348 18.0737 65.8928 17.881C65.4621 17.6883 65.1221 17.3937 64.8728 16.997C64.6235 16.589 64.4988 16.079 64.4988 15.467C64.4988 14.5603 64.8558 13.8633 65.5698 13.376C66.2838 12.8773 67.3831 12.6053 68.8678 12.56L70.4148 12.509V11.965C70.4148 11.2057 70.2505 10.6787 69.9218 10.384C69.5931 10.0893 69.1285 9.942 68.5278 9.942C68.0518 9.942 67.5985 10.0157 67.1678 10.163C66.7371 10.299 66.3348 10.4577 65.9608 10.639L65.5018 9.517C65.8985 9.30167 66.3688 9.12033 66.9128 8.973C67.4568 8.81433 68.0235 8.735 68.6128 8.735ZM69.0548 13.597C67.9215 13.6423 67.1338 13.8237 66.6918 14.141C66.2611 14.4583 66.0458 14.906 66.0458 15.484C66.0458 15.994 66.1988 16.368 66.5048 16.606C66.8221 16.844 67.2245 16.963 67.7118 16.963C68.4825 16.963 69.1228 16.7533 69.6328 16.334C70.1428 15.9033 70.3978 15.246 70.3978 14.362V13.546L69.0548 13.597ZM79.0771 8.718C80.1651 8.718 80.9868 8.98433 81.5421 9.517C82.0974 10.0383 82.3751 10.8883 82.3751 12.067V18H80.8961V12.169C80.8961 11.4323 80.7318 10.8827 80.4031 10.52C80.0744 10.1573 79.5588 9.976 78.8561 9.976C77.8474 9.976 77.1504 10.2593 76.7651 10.826C76.3798 11.3927 76.1871 12.2087 76.1871 13.274V18H74.6911V8.888H75.8981L76.1191 10.129H76.2041C76.4081 9.81167 76.6574 9.551 76.9521 9.347C77.2581 9.13167 77.5924 8.973 77.9551 8.871C78.3178 8.769 78.6918 8.718 79.0771 8.718ZM88.4299 8.718C89.0305 8.718 89.5689 8.83133 90.0449 9.058C90.5322 9.28467 90.9459 9.63033 91.2859 10.095H91.3709L91.5749 8.888H92.7649V18.153C92.7649 19.0143 92.6175 19.734 92.3229 20.312C92.0282 20.9013 91.5805 21.3433 90.9799 21.638C90.3792 21.9327 89.6142 22.08 88.6849 22.08C88.0275 22.08 87.4212 22.029 86.8659 21.927C86.3219 21.8363 85.8345 21.6947 85.4039 21.502V20.125C85.6985 20.2723 86.0215 20.397 86.3729 20.499C86.7242 20.6123 87.1039 20.6973 87.5119 20.754C87.9199 20.8107 88.3392 20.839 88.7699 20.839C89.5519 20.839 90.1639 20.6067 90.6059 20.142C91.0592 19.6887 91.2859 19.0653 91.2859 18.272V17.915C91.2859 17.779 91.2915 17.5863 91.3029 17.337C91.3142 17.0763 91.3255 16.895 91.3369 16.793H91.2689C90.9516 17.2577 90.5549 17.6033 90.0789 17.83C89.6142 18.0567 89.0702 18.17 88.4469 18.17C87.2682 18.17 86.3445 17.7563 85.6759 16.929C85.0185 16.1017 84.6899 14.9457 84.6899 13.461C84.6899 12.4863 84.8372 11.6477 85.1319 10.945C85.4379 10.231 85.8685 9.68133 86.4239 9.296C86.9792 8.91067 87.6479 8.718 88.4299 8.718ZM88.6339 9.976C88.1239 9.976 87.6875 10.112 87.3249 10.384C86.9735 10.656 86.7015 11.0527 86.5089 11.574C86.3275 12.0953 86.2369 12.73 86.2369 13.478C86.2369 14.6 86.4409 15.4613 86.8489 16.062C87.2682 16.6513 87.8745 16.946 88.6679 16.946C89.1325 16.946 89.5292 16.8893 89.8579 16.776C90.1865 16.6513 90.4585 16.4643 90.6739 16.215C90.8892 15.9543 91.0479 15.6257 91.1499 15.229C91.2519 14.8323 91.3029 14.362 91.3029 13.818V13.461C91.3029 12.6337 91.2065 11.965 91.0139 11.455C90.8325 10.945 90.5435 10.571 90.1469 10.333C89.7502 10.095 89.2459 9.976 88.6339 9.976ZM103.275 8.888V18H102.051L101.83 16.793H101.762C101.569 17.1103 101.32 17.371 101.014 17.575C100.708 17.779 100.374 17.9263 100.011 18.017C99.6482 18.119 99.2685 18.17 98.8719 18.17C98.1465 18.17 97.5345 18.0567 97.0359 17.83C96.5485 17.592 96.1802 17.2293 95.9309 16.742C95.6815 16.2547 95.5569 15.6257 95.5569 14.855V8.888H97.0699V14.753C97.0699 15.4783 97.2342 16.0223 97.5629 16.385C97.8915 16.7477 98.4015 16.929 99.0929 16.929C99.7729 16.929 100.306 16.8043 100.691 16.555C101.088 16.2943 101.365 15.9203 101.524 15.433C101.694 14.9343 101.779 14.3337 101.779 13.631V8.888H103.275ZM109.619 8.735C110.729 8.735 111.551 8.97867 112.084 9.466C112.616 9.95333 112.883 10.7297 112.883 11.795V18H111.795L111.506 16.708H111.438C111.177 17.0367 110.905 17.3143 110.622 17.541C110.35 17.7563 110.032 17.915 109.67 18.017C109.318 18.119 108.888 18.17 108.378 18.17C107.834 18.17 107.341 18.0737 106.899 17.881C106.468 17.6883 106.128 17.3937 105.879 16.997C105.629 16.589 105.505 16.079 105.505 15.467C105.505 14.5603 105.862 13.8633 106.576 13.376C107.29 12.8773 108.389 12.6053 109.874 12.56L111.421 12.509V11.965C111.421 11.2057 111.256 10.6787 110.928 10.384C110.599 10.0893 110.134 9.942 109.534 9.942C109.058 9.942 108.604 10.0157 108.174 10.163C107.743 10.299 107.341 10.4577 106.967 10.639L106.508 9.517C106.904 9.30167 107.375 9.12033 107.919 8.973C108.463 8.81433 109.029 8.735 109.619 8.735ZM110.061 13.597C108.927 13.6423 108.14 13.8237 107.698 14.141C107.267 14.4583 107.052 14.906 107.052 15.484C107.052 15.994 107.205 16.368 107.511 16.606C107.828 16.844 108.23 16.963 108.718 16.963C109.488 16.963 110.129 16.7533 110.639 16.334C111.149 15.9033 111.404 15.246 111.404 14.362V13.546L110.061 13.597ZM118.927 8.718C119.528 8.718 120.066 8.83133 120.542 9.058C121.029 9.28467 121.443 9.63033 121.783 10.095H121.868L122.072 8.888H123.262V18.153C123.262 19.0143 123.115 19.734 122.82 20.312C122.525 20.9013 122.078 21.3433 121.477 21.638C120.876 21.9327 120.111 22.08 119.182 22.08C118.525 22.08 117.918 22.029 117.363 21.927C116.819 21.8363 116.332 21.6947 115.901 21.502V20.125C116.196 20.2723 116.519 20.397 116.87 20.499C117.221 20.6123 117.601 20.6973 118.009 20.754C118.417 20.8107 118.836 20.839 119.267 20.839C120.049 20.839 120.661 20.6067 121.103 20.142C121.556 19.6887 121.783 19.0653 121.783 18.272V17.915C121.783 17.779 121.789 17.5863 121.8 17.337C121.811 17.0763 121.823 16.895 121.834 16.793H121.766C121.449 17.2577 121.052 17.6033 120.576 17.83C120.111 18.0567 119.567 18.17 118.944 18.17C117.765 18.17 116.842 17.7563 116.173 16.929C115.516 16.1017 115.187 14.9457 115.187 13.461C115.187 12.4863 115.334 11.6477 115.629 10.945C115.935 10.231 116.366 9.68133 116.921 9.296C117.476 8.91067 118.145 8.718 118.927 8.718ZM119.131 9.976C118.621 9.976 118.185 10.112 117.822 10.384C117.471 10.656 117.199 11.0527 117.006 11.574C116.825 12.0953 116.734 12.73 116.734 13.478C116.734 14.6 116.938 15.4613 117.346 16.062C117.765 16.6513 118.372 16.946 119.165 16.946C119.63 16.946 120.026 16.8893 120.355 16.776C120.684 16.6513 120.956 16.4643 121.171 16.215C121.386 15.9543 121.545 15.6257 121.647 15.229C121.749 14.8323 121.8 14.362 121.8 13.818V13.461C121.8 12.6337 121.704 11.965 121.511 11.455C121.33 10.945 121.041 10.571 120.644 10.333C120.247 10.095 119.743 9.976 119.131 9.976ZM129.675 8.718C130.457 8.718 131.126 8.888 131.681 9.228C132.248 9.568 132.678 10.0497 132.973 10.673C133.279 11.285 133.432 12.0047 133.432 12.832V13.733H127.193C127.216 14.7643 127.476 15.552 127.975 16.096C128.485 16.6287 129.193 16.895 130.1 16.895C130.678 16.895 131.188 16.844 131.63 16.742C132.083 16.6287 132.548 16.47 133.024 16.266V17.575C132.559 17.779 132.1 17.9263 131.647 18.017C131.194 18.119 130.655 18.17 130.032 18.17C129.171 18.17 128.406 17.9943 127.737 17.643C127.08 17.2917 126.564 16.7703 126.19 16.079C125.827 15.3763 125.646 14.5207 125.646 13.512C125.646 12.5147 125.81 11.659 126.139 10.945C126.479 10.231 126.949 9.68133 127.55 9.296C128.162 8.91067 128.87 8.718 129.675 8.718ZM129.658 9.942C128.944 9.942 128.377 10.1743 127.958 10.639C127.55 11.0923 127.306 11.727 127.227 12.543H131.868C131.868 12.0217 131.789 11.5683 131.63 11.183C131.471 10.7977 131.228 10.4973 130.899 10.282C130.582 10.0553 130.168 9.942 129.658 9.942ZM146.05 12.849C145.982 12.611 145.914 12.3787 145.846 12.152C145.778 11.914 145.715 11.693 145.659 11.489C145.613 11.2737 145.568 11.0753 145.523 10.894C145.477 10.7127 145.443 10.5597 145.421 10.435H145.353C145.33 10.5597 145.296 10.7127 145.251 10.894C145.217 11.0753 145.171 11.2737 145.115 11.489C145.069 11.7043 145.013 11.931 144.945 12.169C144.888 12.3957 144.82 12.628 144.741 12.866L143.109 17.983H141.409L138.91 8.871H140.457L141.715 13.733C141.805 14.0617 141.89 14.396 141.97 14.736C142.049 15.0647 142.117 15.382 142.174 15.688C142.242 15.9827 142.287 16.2377 142.31 16.453H142.378C142.412 16.317 142.451 16.147 142.497 15.943C142.542 15.739 142.587 15.5237 142.633 15.297C142.689 15.0703 142.746 14.8437 142.803 14.617C142.871 14.3903 142.933 14.1863 142.99 14.005L144.605 8.871H146.237L147.801 14.005C147.88 14.2657 147.959 14.5433 148.039 14.838C148.129 15.1327 148.209 15.4217 148.277 15.705C148.345 15.977 148.39 16.2207 148.413 16.436H148.481C148.503 16.2433 148.543 16.0053 148.6 15.722C148.668 15.4273 148.741 15.11 148.821 14.77C148.911 14.4187 149.002 14.073 149.093 13.733L150.368 8.871H151.898L149.365 17.983H147.614L146.05 12.849ZM155.028 8.888V18H153.532V8.888H155.028ZM154.297 5.471C154.524 5.471 154.722 5.55033 154.892 5.709C155.073 5.85633 155.164 6.09433 155.164 6.423C155.164 6.74033 155.073 6.97833 154.892 7.137C154.722 7.29567 154.524 7.375 154.297 7.375C154.048 7.375 153.838 7.29567 153.668 7.137C153.498 6.97833 153.413 6.74033 153.413 6.423C153.413 6.09433 153.498 5.85633 153.668 5.709C153.838 5.55033 154.048 5.471 154.297 5.471ZM160.958 16.946C161.184 16.946 161.417 16.929 161.655 16.895C161.893 16.8497 162.085 16.8043 162.233 16.759V17.898C162.074 17.9773 161.847 18.0397 161.553 18.085C161.258 18.1417 160.975 18.17 160.703 18.17C160.227 18.17 159.785 18.0907 159.377 17.932C158.98 17.762 158.657 17.473 158.408 17.065C158.158 16.657 158.034 16.0847 158.034 15.348V10.044H156.742V9.33L158.051 8.735L158.646 6.797H159.53V8.888H162.165V10.044H159.53V15.314C159.53 15.8693 159.66 16.283 159.921 16.555C160.193 16.8157 160.538 16.946 160.958 16.946ZM165.553 8.871C165.553 9.08633 165.542 9.30733 165.519 9.534C165.508 9.76067 165.491 9.96467 165.468 10.146H165.57C165.763 9.82867 166.007 9.568 166.301 9.364C166.596 9.16 166.925 9.007 167.287 8.905C167.65 8.79167 168.024 8.735 168.409 8.735C169.146 8.735 169.758 8.854 170.245 9.092C170.744 9.31867 171.118 9.67567 171.367 10.163C171.617 10.6503 171.741 11.285 171.741 12.067V18H170.262V12.169C170.262 11.4323 170.098 10.8827 169.769 10.52C169.441 10.1573 168.925 9.976 168.222 9.976C167.542 9.976 167.01 10.1063 166.624 10.367C166.239 10.6163 165.961 10.9903 165.791 11.489C165.633 11.9763 165.553 12.577 165.553 13.291V18H164.057V5.08H165.553V8.871Z" fill="black"/>
<path d="M65.1663 43.5038C64.6123 41.4566 62.9899 39.8424 60.9321 39.2912C57.1728 38.2676 42.1354 38.2676 42.1354 38.2676C42.1354 38.2676 27.0981 38.2676 23.3387 39.2518C21.3206 39.803 19.6585 41.4566 19.1045 43.5038C18.1152 47.244 18.1152 54.9999 18.1152 54.9999C18.1152 54.9999 18.1152 62.7951 19.1045 66.4959C19.6585 68.5432 21.281 70.1573 23.3387 70.7085C27.1376 71.7321 42.1354 71.7321 42.1354 71.7321C42.1354 71.7321 57.1728 71.7321 60.9321 70.7479C62.9899 70.1967 64.6123 68.5825 65.1663 66.5353C66.1556 62.7951 66.1556 55.0392 66.1556 55.0392C66.1556 55.0392 66.1952 47.244 65.1663 43.5038Z" fill="#FF0000"/>
<path d="M37.3477 47.8345V62.1652L49.8524 54.9998L37.3477 47.8345Z" fill="white"/>
<path d="M87.8793 68.7402C86.9296 68.1103 86.2569 67.126 85.8612 65.7481C85.4654 64.4095 85.2676 62.5985 85.2676 60.3938V57.3623C85.2676 55.1182 85.505 53.3071 85.9403 51.9292C86.4152 50.5512 87.1275 49.567 88.0772 48.9371C89.0665 48.3071 90.3328 47.9922 91.9157 47.9922C93.459 47.9922 94.7253 48.3071 95.675 48.9371C96.6247 49.567 97.2975 50.5906 97.7328 51.9292C98.168 53.2678 98.4055 55.0788 98.4055 57.3623V60.3938C98.4055 62.6379 98.2076 64.4095 97.7723 65.7875C97.337 67.126 96.6643 68.1497 95.7146 68.7796C94.7649 69.4095 93.459 69.7245 91.8365 69.7245C90.1745 69.6851 88.8291 69.3701 87.8793 68.7402ZM93.2215 65.4331C93.4986 64.7638 93.6173 63.6221 93.6173 62.0867V55.5512C93.6173 54.0552 93.4986 52.9528 93.2215 52.2442C92.9445 51.5355 92.5093 51.2205 91.8365 51.2205C91.2034 51.2205 90.7285 51.5749 90.4911 52.2442C90.2141 52.9528 90.0954 54.0552 90.0954 55.5512V62.0867C90.0954 63.6221 90.2141 64.7638 90.4911 65.4331C90.7285 66.1024 91.2034 66.4568 91.8761 66.4568C92.5092 66.4568 92.9445 66.1418 93.2215 65.4331Z" fill="#282828"/>
<path d="M160.93 60.4333V61.4963C160.93 62.8348 160.97 63.8585 161.049 64.5277C161.128 65.197 161.286 65.7088 161.563 65.9844C161.801 66.2994 162.197 66.4569 162.751 66.4569C163.463 66.4569 163.938 66.1813 164.215 65.6301C164.492 65.0789 164.61 64.1734 164.65 62.8742L168.726 63.1104C168.765 63.3073 168.765 63.5435 168.765 63.8585C168.765 65.7876 168.251 67.2443 167.183 68.1892C166.114 69.134 164.61 69.6065 162.671 69.6065C160.337 69.6065 158.714 68.8585 157.764 67.4018C156.815 65.9451 156.34 63.701 156.34 60.6301V56.9687C156.34 53.8191 156.815 51.5356 157.804 50.0789C158.793 48.6222 160.455 47.9136 162.79 47.9136C164.413 47.9136 165.679 48.2285 166.549 48.8191C167.42 49.4096 168.014 50.3545 168.37 51.575C168.726 52.8348 168.884 54.5671 168.884 56.7718V60.3545H160.93V60.4333ZM161.524 51.6144C161.286 51.9293 161.128 52.4018 161.049 53.0711C160.97 53.7403 160.93 54.764 160.93 56.1419V57.638H164.413V56.1419C164.413 54.8033 164.373 53.7797 164.294 53.0711C164.215 52.3624 164.017 51.89 163.779 51.6144C163.542 51.3388 163.146 51.1813 162.671 51.1813C162.117 51.1419 161.761 51.2994 161.524 51.6144Z" fill="#282828"/>
<path d="M76.3252 60.0393L70.9434 40.6299H75.6524L77.5519 49.4094C78.0267 51.5748 78.3829 53.4252 78.6203 54.9606H78.739C78.8973 53.8582 79.2535 52.0472 79.8075 49.4488L81.7861 40.6299H86.4951L81.0342 60.0393V69.3307H76.3647V60.0393H76.3252Z" fill="#282828"/>
<path d="M113.72 48.3857V69.37H110L109.605 66.8109H109.486C108.497 68.7401 106.953 69.7243 104.935 69.7243C103.55 69.7243 102.521 69.2519 101.849 68.3464C101.176 67.4409 100.859 66.0235 100.859 64.055V48.3857H105.608V63.7794C105.608 64.7243 105.727 65.3936 105.925 65.7873C106.122 66.181 106.479 66.3779 106.953 66.3779C107.349 66.3779 107.745 66.2598 108.141 65.9842C108.536 65.7479 108.813 65.433 108.972 65.0393V48.3857H113.72Z" fill="#282828"/>
<path d="M138.058 48.3857V69.37H134.338L133.943 66.8109H133.824C132.835 68.7401 131.291 69.7243 129.273 69.7243C127.888 69.7243 126.859 69.2519 126.187 68.3464C125.514 67.4409 125.197 66.0235 125.197 64.055V48.3857H129.946V63.7794C129.946 64.7243 130.065 65.3936 130.262 65.7873C130.46 66.181 130.816 66.3779 131.291 66.3779C131.687 66.3779 132.083 66.2598 132.479 65.9842C132.874 65.7479 133.151 65.433 133.31 65.0393V48.3857H138.058Z" fill="#282828"/>
<path d="M126.62 44.4488H121.911V69.3307H117.281V44.4488H112.572V40.6299H126.62V44.4488Z" fill="#282828"/>
<path d="M153.767 51.7322C153.49 50.3937 153.015 49.4488 152.382 48.8582C151.749 48.2677 150.839 47.9527 149.731 47.9527C148.86 47.9527 148.029 48.1889 147.277 48.7008C146.525 49.1732 145.932 49.8425 145.536 50.6299H145.497V39.5669H140.906V69.3307H144.824L145.299 67.3622H145.417C145.774 68.0708 146.328 68.622 147.079 69.0551C147.831 69.4488 148.623 69.685 149.533 69.685C151.155 69.685 152.303 68.937 153.055 67.4803C153.807 66.0236 154.202 63.7008 154.202 60.5905V57.2834C154.163 54.8819 154.044 53.0315 153.767 51.7322ZM149.414 60.2756C149.414 61.811 149.335 62.9921 149.216 63.8582C149.098 64.7244 148.86 65.3543 148.583 65.7086C148.267 66.063 147.871 66.2598 147.396 66.2598C147 66.2598 146.644 66.1811 146.328 65.9842C146.011 65.7874 145.734 65.5118 145.536 65.1574V53.2677C145.694 52.7165 145.971 52.2441 146.367 51.8504C146.763 51.496 147.198 51.2992 147.633 51.2992C148.108 51.2992 148.504 51.496 148.742 51.8504C149.019 52.2441 149.177 52.874 149.296 53.7401C149.414 54.6456 149.454 55.9055 149.454 57.5197V60.2756H149.414Z" fill="#282828"/>
</svg>
