<svg width="208" height="209" viewBox="0 0 208 209" fill="none" xmlns="http://www.w3.org/2000/svg">
<path fill-rule="evenodd" clip-rule="evenodd" d="M9.08787 59.8493C32.6354 12.2252 75.0693 0 103.978 0C163.066 0 192.61 44.9206 200.465 65.362C210.605 91.753 208.485 110.945 205.689 124.863C201.389 144.871 193.866 159.476 182.091 172.603C170.316 185.73 153.874 199.218 125.964 206.001C104.992 211.098 83.6063 207.413 67.2754 201.497C53.7155 196.586 38.9761 186.6 35.4185 182.268C31.8608 177.936 31.7739 172.201 36.7197 169.104L83.9884 144.118L84.0275 144.041C84.4457 143.899 84.8601 143.714 85.2662 143.484L138.121 113.515C142.847 110.835 142.9 104.043 138.216 101.29L85.835 70.501C81.1509 67.7477 75.2428 71.0976 75.2004 76.5309L75.024 99.1597C75.0277 99.1988 75.0315 99.2378 75.0352 99.2769L75.0352 131.508C75.0352 132.415 75.0231 133.26 75.0118 134.045C74.956 137.941 74.9215 140.349 76.4977 141.58C76.4977 141.58 71.5003 144.565 66.9454 146.97C66.3852 147.266 65.7688 147.606 65.1114 147.97C60.4236 150.561 53.6514 154.304 50.3086 151.122C33.2133 134.853 23.2585 110.33 21.1185 90.9322C20.5299 85.5977 12.2729 81.5546 6.96787 89.0148C4.80687 92.0537 0.296389 97.6856 0.167214 96.9399C-1.2254 88.9004 6.46224 63.9978 9.08787 59.8493Z" fill="black"/>
</svg>
