<svg width="238" height="239" viewBox="0 0 238 239" fill="none" xmlns="http://www.w3.org/2000/svg">
<path opacity="0.4" fill-rule="evenodd" clip-rule="evenodd" d="M11.1479 69.2771C37.984 14.8767 86.4136 0.917104 119.399 0.917105C186.77 0.917108 220.455 52.1343 229.41 75.4411C240.972 105.531 238.556 127.413 235.367 143.283C230.464 166.095 221.887 182.747 208.461 197.714C195.036 212.681 176.289 228.06 144.467 235.793C120.555 241.605 96.1717 237.403 77.5517 230.659C62.0911 225.059 45.2856 213.674 41.2293 208.734C37.173 203.795 37.0739 197.256 42.7129 193.724L87.5092 170.045C88.3385 169.607 89.3199 169.474 90.1358 169.012L166.265 125.846C168.128 124.79 168.149 122.112 166.302 121.027L90.8555 76.68C89.0089 75.5946 86.6797 76.9152 86.663 79.0572L86.3917 113.873C86.3991 113.952 86.4066 114.031 86.4142 114.11L86.4142 150.859C86.4142 151.894 86.4004 152.857 86.3876 153.751C86.3252 158.108 84.0472 164.738 80.2323 166.843C79.2297 167.397 78.2005 167.955 77.1904 168.488C76.5517 168.826 75.8489 169.214 75.0994 169.628C69.7545 172.582 62.0329 176.85 58.2216 173.223C38.73 154.673 27.3798 126.713 24.9398 104.596C24.2688 98.5134 14.8544 93.9035 8.80568 102.409C6.34177 105.874 1.19904 112.296 1.05175 111.445C-0.523019 102.354 8.08582 74.3511 11.1479 69.2771Z" fill="#F2F2F7"/>
</svg>
